<?xml version="1.0" encoding="utf-8"?>
<!-- Generated by Mocodo 4.3.2 -->
<svg width="358" height="439" viewBox="0 0 358 439" xmlns="http://www.w3.org/2000/svg">
<rect x="0" y="0" width="358" height="439" fill="#ffffbf" stroke="none" stroke-width="0"/>

<!-- Association INSCRITE -->
<g>
	<line x1="188" y1="85" x2="52" y2="85" stroke="#f46d43" stroke-width="2"/>
	<line x1="52" y1="262" x2="52" y2="85" stroke="#f46d43" stroke-width="2"/>
	<g>
		<path d="M75 60 a14 14 90 0 1 14 14 V85 h-74 V74 a14 14 90 0 1 14 -14" fill="#fdae61" stroke="#fdae61" stroke-width="0"/>
		<path d="M89 85 v11 a14 14 90 0 1 -14 14 H29 a14 14 90 0 1 -14 -14 V85 H74" fill="#fee08b" stroke="#fee08b" stroke-width="0"/>
		<rect x="15" y="60" width="74" height="50" fill="none" rx="14" stroke="#f46d43" stroke-width="2"/>
		<line x1="15" y1="85" x2="89" y2="85" stroke="#f46d43" stroke-width="1"/>
		<text x="22" y="77.75" fill="#000000" font-family="Verdana" font-size="12">INSCRITE</text>
	</g>
	<text x="95" y="102" fill="#1a9850" font-family="Verdana" font-size="12">1,n</text>
	<text x="57" y="203" fill="#1a9850" font-family="Verdana" font-size="12">1,1</text>
	<line x1="57" y1="205" x2="78" y2="205" stroke="#1a9850" stroke-width="1"/>
</g>

<!-- Association JOUER -->
<g>
	<line x1="188" y1="388" x2="188" y2="262" stroke="#f46d43" stroke-width="2"/>
	<line x1="188" y1="85" x2="188" y2="262" stroke="#f46d43" stroke-width="2"/>
	<g>
		<path d="M208 211 a14 14 90 0 1 14 14 V236 h-68 V225 a14 14 90 0 1 14 -14" fill="#fdae61" stroke="#fdae61" stroke-width="0"/>
		<path d="M222 236 v63 a14 14 90 0 1 -14 14 H168 a14 14 90 0 1 -14 -14 V236 H68" fill="#fee08b" stroke="#fee08b" stroke-width="0"/>
		<rect x="154" y="211" width="68" height="102" fill="none" rx="14" stroke="#f46d43" stroke-width="2"/>
		<line x1="154" y1="236" x2="222" y2="236" stroke="#f46d43" stroke-width="1"/>
		<text x="168" y="228.75" fill="#000000" font-family="Verdana" font-size="12">JOUER</text>
		<text x="161" y="253.8" fill="#000000" font-family="Verdana" font-size="12">nom1</text>
		<text x="161" y="270.8" fill="#000000" font-family="Verdana" font-size="12">couleur1</text>
		<text x="161" y="287.8" fill="#000000" font-family="Verdana" font-size="12">nom2</text>
		<text x="161" y="304.8" fill="#000000" font-family="Verdana" font-size="12">couleur2</text>
	</g>
	<text x="193" y="338" fill="#1a9850" font-family="Verdana" font-size="12">0,n</text>
	<text x="193" y="178" fill="#1a9850" font-family="Verdana" font-size="12">2,2</text>
</g>

<!-- Association POSSEDER -->
<g>
	<line x1="308" y1="262" x2="308" y2="388" stroke="#f46d43" stroke-width="2"/>
	<line x1="188" y1="388" x2="308" y2="388" stroke="#f46d43" stroke-width="2"/>
	<g>
		<path d="M335 363 a14 14 90 0 1 14 14 V388 h-82 V377 a14 14 90 0 1 14 -14" fill="#fdae61" stroke="#fdae61" stroke-width="0"/>
		<path d="M349 388 v11 a14 14 90 0 1 -14 14 H281 a14 14 90 0 1 -14 -14 V388 H82" fill="#fee08b" stroke="#fee08b" stroke-width="0"/>
		<rect x="267" y="363" width="82" height="50" fill="none" rx="14" stroke="#f46d43" stroke-width="2"/>
		<line x1="267" y1="388" x2="349" y2="388" stroke="#f46d43" stroke-width="1"/>
		<text x="275" y="380.75" fill="#000000" font-family="Verdana" font-size="12">POSSEDER</text>
	</g>
	<text x="313" y="355" fill="#1a9850" font-family="Verdana" font-size="12">0,n</text>
	<text x="240" y="405" fill="#1a9850" font-family="Verdana" font-size="12">6,8</text>
</g>

<!-- Entity PARTIE -->
<g>
	<g>
		<rect x="121" y="9" width="134" height="25" fill="#a6d96a" stroke="none" stroke-width="0" opacity="1"/>
		<rect x="121" y="34" width="134" height="127" fill="#d9ef8b" stroke="none" stroke-width="0" opacity="1"/>
		<rect x="121" y="9" width="134" height="152" fill="none" stroke="#66bd63" stroke-width="2" opacity="1"/>
		<line x1="121" y1="34" x2="255" y2="34" stroke="#66bd63" stroke-width="1"/>
	</g>
	<text x="166" y="26.75" fill="#000000" font-family="Verdana" font-size="12">PARTIE</text>
	<text x="126" y="51.8" fill="#000000" font-family="Verdana" font-size="12">idP</text>
	<line x1="126" y1="54" x2="145" y2="54" stroke="#000000" stroke-width="1"/>
	<text x="126" y="68.8" fill="#000000" font-family="Verdana" font-size="12">date_debut</text>
	<text x="126" y="85.8" fill="#000000" font-family="Verdana" font-size="12">date_fin</text>
	<text x="126" y="102.8" fill="#000000" font-family="Verdana" font-size="12">id_equipe_gagnante</text>
	<text x="126" y="119.8" fill="#000000" font-family="Verdana" font-size="12">taille_grille</text>
	<text x="126" y="136.8" fill="#000000" font-family="Verdana" font-size="12">nb_max_tours</text>
	<text x="126" y="153.8" fill="#000000" font-family="Verdana" font-size="12">date_config</text>
</g>

<!-- Entity JOURNAL -->
<g>
	<g>
		<rect x="9" y="211" width="86" height="25" fill="#a6d96a" stroke="none" stroke-width="0" opacity="1"/>
		<rect x="9" y="236" width="86" height="77" fill="#d9ef8b" stroke="none" stroke-width="0" opacity="1"/>
		<rect x="9" y="211" width="86" height="102" fill="none" stroke="#66bd63" stroke-width="2" opacity="1"/>
		<line x1="9" y1="236" x2="95" y2="236" stroke="#66bd63" stroke-width="1"/>
	</g>
	<text x="24" y="228.75" fill="#000000" font-family="Verdana" font-size="12">JOURNAL</text>
	<text x="14" y="253.8" fill="#000000" font-family="Verdana" font-size="12">num_action</text>
	<line x1="14" y1="256" x2="86" y2="256" stroke="#000000" stroke-width="1" stroke-dasharray="4"/>
	<text x="14" y="270.8" fill="#000000" font-family="Verdana" font-size="12">idP</text>
	<line x1="14" y1="273" x2="33" y2="273" stroke="#000000" stroke-width="1" stroke-dasharray="4"/>
	<text x="14" y="287.8" fill="#000000" font-family="Verdana" font-size="12">date_action</text>
	<text x="14" y="304.8" fill="#000000" font-family="Verdana" font-size="12">texte_action</text>
</g>

<!-- Entity MORPION -->
<g>
	<g>
		<rect x="273" y="186" width="70" height="25" fill="#a6d96a" stroke="none" stroke-width="0" opacity="1"/>
		<rect x="273" y="211" width="70" height="127" fill="#d9ef8b" stroke="none" stroke-width="0" opacity="1"/>
		<rect x="273" y="186" width="70" height="152" fill="none" stroke="#66bd63" stroke-width="2" opacity="1"/>
		<line x1="273" y1="211" x2="343" y2="211" stroke="#66bd63" stroke-width="1"/>
	</g>
	<text x="278" y="203.75" fill="#000000" font-family="Verdana" font-size="12">MORPION</text>
	<text x="278" y="228.8" fill="#000000" font-family="Verdana" font-size="12">idM</text>
	<line x1="278" y1="231" x2="300" y2="231" stroke="#000000" stroke-width="1"/>
	<text x="278" y="245.8" fill="#000000" font-family="Verdana" font-size="12">nomM</text>
	<text x="278" y="262.8" fill="#000000" font-family="Verdana" font-size="12">image</text>
	<text x="278" y="279.8" fill="#000000" font-family="Verdana" font-size="12">pv</text>
	<text x="278" y="296.8" fill="#000000" font-family="Verdana" font-size="12">attaque</text>
	<text x="278" y="313.8" fill="#000000" font-family="Verdana" font-size="12">mana</text>
	<text x="278" y="330.8" fill="#000000" font-family="Verdana" font-size="12">reussite</text>
</g>

<!-- Entity EQUIPE -->
<g>
	<g>
		<rect x="141" y="346" width="94" height="25" fill="#a6d96a" stroke="none" stroke-width="0" opacity="1"/>
		<rect x="141" y="371" width="94" height="59" fill="#d9ef8b" stroke="none" stroke-width="0" opacity="1"/>
		<rect x="141" y="346" width="94" height="84" fill="none" stroke="#66bd63" stroke-width="2" opacity="1"/>
		<line x1="141" y1="371" x2="235" y2="371" stroke="#66bd63" stroke-width="1"/>
	</g>
	<text x="165" y="363.75" fill="#000000" font-family="Verdana" font-size="12">EQUIPE</text>
	<text x="146" y="388.8" fill="#000000" font-family="Verdana" font-size="12">nom</text>
	<line x1="146" y1="391" x2="174" y2="391" stroke="#000000" stroke-width="1"/>
	<text x="146" y="405.8" fill="#000000" font-family="Verdana" font-size="12">couleur</text>
	<line x1="146" y1="408" x2="191" y2="408" stroke="#000000" stroke-width="1"/>
	<text x="146" y="422.8" fill="#000000" font-family="Verdana" font-size="12">date_creation</text>
</g>
</svg>