<?xml version="1.0" encoding="utf-8"?>
<!-- Generated by Mocodo 4.3.2 -->
<svg width="344" height="356" viewBox="0 0 344 356" xmlns="http://www.w3.org/2000/svg">
<rect x="0" y="0" width="344" height="356" fill="#ffffbf" stroke="none" stroke-width="0"/>

<!-- Association POSSEDER -->
<g>
	<line x1="63" y1="68" x2="186" y2="68" stroke="#f46d43" stroke-width="2"/>
	<line x1="295" y1="68" x2="186" y2="68" stroke="#f46d43" stroke-width="2"/>
	<g>
		<path d="M213 43 a14 14 90 0 1 14 14 V68 h-82 V57 a14 14 90 0 1 14 -14" fill="#fdae61" stroke="#fdae61" stroke-width="0"/>
		<path d="M227 68 v11 a14 14 90 0 1 -14 14 H159 a14 14 90 0 1 -14 -14 V68 H82" fill="#fee08b" stroke="#fee08b" stroke-width="0"/>
		<rect x="145" y="43" width="82" height="50" fill="none" rx="14" stroke="#f46d43" stroke-width="2"/>
		<line x1="145" y1="68" x2="227" y2="68" stroke="#f46d43" stroke-width="1"/>
		<text x="153" y="60.75" fill="#000000" font-family="Verdana" font-size="12">POSSEDER</text>
	</g>
	<text x="103" y="85" fill="#3288bd" font-family="Verdana" font-size="12">6,8</text>
	<text x="240" y="60" fill="#3288bd" font-family="Verdana" font-size="12">1,1</text>
</g>

<!-- Association JOUER -->
<g>
	<line x1="295" y1="68" x2="186" y2="152" stroke="#f46d43" stroke-width="2"/>
	<line x1="63" y1="262" x2="186" y2="152" stroke="#f46d43" stroke-width="2"/>
	<g>
		<path d="M200 127 a14 14 90 0 1 14 14 V152 h-56 V141 a14 14 90 0 1 14 -14" fill="#fdae61" stroke="#fdae61" stroke-width="0"/>
		<path d="M214 152 v11 a14 14 90 0 1 -14 14 H172 a14 14 90 0 1 -14 -14 V152 H56" fill="#fee08b" stroke="#fee08b" stroke-width="0"/>
		<rect x="158" y="127" width="56" height="50" fill="none" rx="14" stroke="#f46d43" stroke-width="2"/>
		<line x1="158" y1="152" x2="214" y2="152" stroke="#f46d43" stroke-width="1"/>
		<text x="166" y="144.75" fill="#000000" font-family="Verdana" font-size="12">JOUER</text>
	</g>
	<text x="239" y="88.14" fill="#3288bd" font-family="Verdana" font-size="12">0,N</text>
	<text x="122" y="224.19" fill="#3288bd" font-family="Verdana" font-size="12">2,2</text>
</g>

<!-- Association INSCRITE -->
<g>
	<line x1="63" y1="262" x2="186" y2="262" stroke="#f46d43" stroke-width="2"/>
	<line x1="295" y1="262" x2="186" y2="262" stroke="#f46d43" stroke-width="2"/>
	<g>
		<path d="M209 237 a14 14 90 0 1 14 14 V262 h-74 V251 a14 14 90 0 1 14 -14" fill="#fdae61" stroke="#fdae61" stroke-width="0"/>
		<path d="M223 262 v11 a14 14 90 0 1 -14 14 H163 a14 14 90 0 1 -14 -14 V262 H74" fill="#fee08b" stroke="#fee08b" stroke-width="0"/>
		<rect x="149" y="237" width="74" height="50" fill="none" rx="14" stroke="#f46d43" stroke-width="2"/>
		<line x1="149" y1="262" x2="223" y2="262" stroke="#f46d43" stroke-width="1"/>
		<text x="156" y="254.75" fill="#000000" font-family="Verdana" font-size="12">INSCRITE</text>
		<text x="156" y="279.8" fill="#000000" font-family="Verdana" font-size="12">date</text>
	</g>
	<text x="122" y="279" fill="#3288bd" font-family="Verdana" font-size="12">1,1</text>
	<text x="228" y="279" fill="#3288bd" font-family="Verdana" font-size="12">0,N</text>
</g>

<!-- Entity MORPION -->
<g>
	<g>
		<rect x="28" y="9" width="70" height="25" fill="#abdda4" stroke="none" stroke-width="0" opacity="1"/>
		<rect x="28" y="34" width="70" height="93" fill="#e6f598" stroke="none" stroke-width="0" opacity="1"/>
		<rect x="28" y="9" width="70" height="118" fill="none" stroke="#66c2a5" stroke-width="2" opacity="1"/>
		<line x1="28" y1="34" x2="98" y2="34" stroke="#66c2a5" stroke-width="1"/>
	</g>
	<text x="33" y="26.75" fill="#000000" font-family="Verdana" font-size="12">MORPION</text>
	<text x="33" y="51.8" fill="#000000" font-family="Verdana" font-size="12">image</text>
	<line x1="33" y1="54" x2="71" y2="54" stroke="#000000" stroke-width="1"/>
	<text x="33" y="68.8" fill="#000000" font-family="Verdana" font-size="12">nom</text>
	<line x1="33" y1="71" x2="61" y2="71" stroke="#000000" stroke-width="1"/>
	<text x="33" y="85.8" fill="#000000" font-family="Verdana" font-size="12">pv</text>
	<text x="33" y="102.8" fill="#000000" font-family="Verdana" font-size="12">mana</text>
	<text x="33" y="119.8" fill="#000000" font-family="Verdana" font-size="12">reussite</text>
</g>

<!-- Entity EQUIPE -->
<g>
	<g>
		<rect x="266" y="43" width="58" height="25" fill="#abdda4" stroke="none" stroke-width="0" opacity="1"/>
		<rect x="266" y="68" width="58" height="25" fill="#e6f598" stroke="none" stroke-width="0" opacity="1"/>
		<rect x="266" y="43" width="58" height="50" fill="none" stroke="#66c2a5" stroke-width="2" opacity="1"/>
		<line x1="266" y1="68" x2="324" y2="68" stroke="#66c2a5" stroke-width="1"/>
	</g>
	<text x="272" y="60.75" fill="#000000" font-family="Verdana" font-size="12">EQUIPE</text>
	<text x="271" y="85.8" fill="#000000" font-family="Verdana" font-size="12">nom</text>
</g>

<!-- Entity PARTIE -->
<g>
	<g>
		<rect x="9" y="177" width="108" height="25" fill="#abdda4" stroke="none" stroke-width="0" opacity="1"/>
		<rect x="9" y="202" width="108" height="145" fill="#e6f598" stroke="none" stroke-width="0" opacity="1"/>
		<rect x="9" y="177" width="108" height="170" fill="none" stroke="#66c2a5" stroke-width="2" opacity="1"/>
		<line x1="9" y1="202" x2="117" y2="202" stroke="#66c2a5" stroke-width="1"/>
	</g>
	<text x="41" y="194.75" fill="#000000" font-family="Verdana" font-size="12">PARTIE</text>
	<text x="14" y="219.8" fill="#000000" font-family="Verdana" font-size="12">idP</text>
	<line x1="14" y1="222" x2="33" y2="222" stroke="#000000" stroke-width="1"/>
	<text x="14" y="236.8" fill="#000000" font-family="Verdana" font-size="12">nom1</text>
	<text x="14" y="253.8" fill="#000000" font-family="Verdana" font-size="12">nom2</text>
	<text x="14" y="270.8" fill="#000000" font-family="Verdana" font-size="12">date</text>
	<text x="14" y="287.8" fill="#000000" font-family="Verdana" font-size="12">date_fin</text>
	<text x="14" y="304.8" fill="#000000" font-family="Verdana" font-size="12">taille_grille</text>
	<text x="14" y="321.8" fill="#000000" font-family="Verdana" font-size="12">max_tours</text>
	<text x="14" y="338.8" fill="#000000" font-family="Verdana" font-size="12">equipe_gagnate</text>
</g>

<!-- Entity JOURNAL -->
<g>
	<g>
		<rect x="255" y="220" width="80" height="25" fill="#abdda4" stroke="none" stroke-width="0" opacity="1"/>
		<rect x="255" y="245" width="80" height="59" fill="#e6f598" stroke="none" stroke-width="0" opacity="1"/>
		<rect x="255" y="220" width="80" height="84" fill="none" stroke="#66c2a5" stroke-width="2" opacity="1"/>
		<line x1="255" y1="245" x2="335" y2="245" stroke="#66c2a5" stroke-width="1"/>
	</g>
	<text x="267" y="237.75" fill="#000000" font-family="Verdana" font-size="12">JOURNAL</text>
	<text x="260" y="262.8" fill="#000000" font-family="Verdana" font-size="12">date_heure</text>
	<line x1="260" y1="265" x2="330" y2="265" stroke="#000000" stroke-width="1"/>
	<text x="260" y="279.8" fill="#000000" font-family="Verdana" font-size="12">idP</text>
	<line x1="260" y1="282" x2="279" y2="282" stroke="#000000" stroke-width="1"/>
	<text x="260" y="296.8" fill="#000000" font-family="Verdana" font-size="12">action</text>
</g>
</svg>